<svg xmlns="http://www.w3.org/2000/svg" version="1.1" x="0" y="0" width="400" height="100" viewBox="0 0 400 100" enable-background="new 0 0 400 100" xml:space="preserve"><path id="logo-allianz" d="M36.4 52.5H22.8l7.3-23.7L36.4 52.5zM15.7 78.6l4.7-15.6h18.4l4.4 15.6h17L43.2 19.2c-1-3.5-3.1-5.1-6.8-5.1H12.3v5.6h2c2.5 0 3.9 1 3.9 2.9 0 1.3-0.3 2.3-1.3 5.2L0 78.6H15.7zM79.8 78.6v-59.6c0-3.1-1.8-4.9-4.8-4.9H60v5.6h1c2.5 0 3.6 1.1 3.6 3.6v55.4L79.8 78.6 79.8 78.6zM105.6 78.6v-59.6c0-3.1-1.8-4.9-4.8-4.9H85.9v5.6h0.9c2.5 0 3.6 1.1 3.6 3.6v55.4L105.6 78.6 105.6 78.6zM132.1 19.9c0-4.3-3.2-6.9-8.7-6.9 -5.4 0-8.7 2.6-8.7 7 0 4.4 3.3 7 8.7 7C128.9 26.9 132.1 24.3 132.1 19.9M131.8 78.6v-43.5c0-3.1-1.8-4.9-4.9-4.9h-14.7v5.5h0.9c2.5 0 3.6 1.2 3.6 3.7v39.2H131.8zM165.1 55.4v9.4c-2.5 2.6-5.6 4.2-8.2 4.2 -2.7 0-3.7-1.3-3.7-5 0-3.6 0.8-5.2 3.5-6.3C158.7 56.9 161.3 56.1 165.1 55.4M144.7 44.1c5-2.4 10.6-3.8 14.9-3.8 4.1 0 5.5 1.5 5.5 5.7v1.1c-6.2 1-8.1 1.4-11.6 2.1 -2 0.5-3.9 1-5.7 1.8 -6.1 2.4-9 7.2-9 14.4 0 9.2 4 13.6 12.2 13.6 3 0 5.7-0.6 8.1-1.5 2.1-0.9 3.4-1.7 6.5-4.2v0.7c0 3 1.5 4.5 4.6 4.5h13.8v-5.2h-0.7c-2.6 0-3.6-1.2-3.6-4.3V46.1c0-12.3-4.3-16.6-16.6-16.6 -4 0-7.8 0.5-11.6 1.4 -3.8 0.9-5.7 1.6-10.3 3.9L144.7 44.1zM206 78.6V45.9c2.5-2.8 5.1-4.1 8.1-4.1 3.2 0 4 1.3 4 6.1v30.7h15.1V45.7c0-7.7-0.6-10.1-3-12.7 -2-2.2-5.1-3.4-9.1-3.4 -5.9 0-10.1 1.8-15.7 7.1v-1.9c0-3-1.6-4.6-4.7-4.6h-14.3v5.5h0.9c2.5 0 3.6 1.2 3.6 3.7v39.2H206zM278.1 68.5h-21.1l20.1-28.3V30.2h-31.6c-3.6 0-5.2 1.6-5.2 5.2v8.8h5.6v-0.9c0-2.2 1.2-3.3 3.6-3.3h10.9l-20.3 28.6v10h38V68.5L278.1 68.5zM357.3 77.4V22.7c0-4.4-1.5-5.8-5.8-5.8h-12.8v6.1h0.8c2.9 0 3.5 0.7 3.5 4.2v50.3H357.3zM363.7 77.4h14.2V34.8c0-4.3-1.7-5.8-5.8-5.8h-8.4v48.4H363.7zM336.7 77.4V29H328.3c-4.2 0-5.8 1.5-5.8 5.8v42.6H336.7zM391.3 49.6c0 24.1-17.3 41.6-41.1 41.6 -23.8 0-41.2-17.5-41.2-41.6 0-24.1 17.3-41.6 41.2-41.6C374 7.9 391.3 25.6 391.3 49.6M399.8 49.6C399.8 21.2 378.6 0 350.2 0c-28.4 0-49.6 21.2-49.6 49.6 0 28.4 21.2 49.6 49.6 49.6C378.6 99.1 399.8 78 399.8 49.6"/></svg>
