<svg xmlns="http://www.w3.org/2000/svg" width="400" height="100" viewBox="0 0 400 100"><path fill="#FFF" d="M36.43 52.477H22.781l7.265-23.713 6.384 23.713zM15.705 78.625l4.654-15.582h18.393l4.358 15.582h17.042L43.218 19.182c-.973-3.511-3.099-5.135-6.788-5.135H12.323v5.614h2.028c2.517 0 3.879.981 3.879 2.91 0 1.264-.283 2.324-1.282 5.22L0 78.625h15.705zM79.778 78.625v-59.63c0-3.104-1.822-4.947-4.833-4.947H60.04v5.614h.97c2.514 0 3.575 1.065 3.575 3.604v55.357l15.193.002zM105.62 78.625v-59.63c0-3.104-1.847-4.947-4.842-4.947H85.877v5.614h.949c2.529 0 3.593 1.065 3.593 3.604v55.357l15.201.002zM132.126 19.941c0-4.33-3.204-6.95-8.71-6.95-5.418 0-8.728 2.62-8.728 6.95 0 4.381 3.31 6.976 8.728 6.976 5.506-.001 8.71-2.595 8.71-6.976m-.283 58.684v-43.47c0-3.097-1.848-4.93-4.852-4.93h-14.708v5.508h.865c2.517 0 3.579 1.155 3.579 3.677v39.215h15.116zM165.121 55.377v9.409c-2.527 2.615-5.611 4.184-8.22 4.184-2.726 0-3.681-1.341-3.681-4.967 0-3.583.759-5.212 3.475-6.268 2.029-.879 4.646-1.65 8.426-2.358m-20.444-11.299c5.043-2.421 10.563-3.78 14.912-3.78 4.079 0 5.532 1.453 5.532 5.688v1.08c-6.193.979-8.128 1.375-11.621 2.146-2.014.476-3.884 1.049-5.72 1.83-6.108 2.449-8.991 7.165-8.991 14.42 0 9.196 3.963 13.645 12.189 13.645a21.98 21.98 0 0 0 8.144-1.534c2.123-.942 3.382-1.735 6.488-4.157v.675c0 2.997 1.539 4.538 4.55 4.538h13.842v-5.213h-.683c-2.609 0-3.574-1.172-3.574-4.258V46.102c0-12.289-4.264-16.568-16.571-16.568-3.962 0-7.832.505-11.599 1.372-3.795.861-5.739 1.639-10.262 3.872l3.364 9.3zM206.048 78.625V45.901c2.528-2.812 5.132-4.078 8.136-4.078 3.207 0 3.971 1.267 3.971 6.135v30.668h15.102V45.717c0-7.66-.558-10.081-2.986-12.679-2.035-2.243-5.133-3.39-9.117-3.39-5.909 0-10.068 1.833-15.657 7.062v-1.932c0-3.014-1.574-4.553-4.666-4.553h-14.342v5.508h.871c2.517 0 3.594 1.155 3.594 3.677v39.215h15.094zM278.07 68.462h-21.107l20.143-28.254V30.22h-31.552c-3.586 0-5.23 1.641-5.23 5.233v8.795h5.611v-.863c0-2.223 1.16-3.288 3.566-3.288h10.857l-20.333 28.565v9.962h38.046V68.462h-.001zM357.341 77.391V22.675c0-4.358-1.547-5.825-5.785-5.825h-12.805v6.108h.766c2.924 0 3.49.657 3.49 4.179v50.254h14.334zm6.315 0h14.227V34.779c0-4.277-1.652-5.819-5.82-5.819h-8.404v48.432h-.003zm-26.93 0V28.959H328.3c-4.168 0-5.805 1.542-5.805 5.819V77.39h14.231zm54.609-27.81c0 24.109-17.332 41.639-41.148 41.639-23.82 0-41.156-17.528-41.156-41.639 0-24.116 17.336-41.644 41.156-41.644 23.816.001 41.148 17.637 41.148 41.644m8.424 0C399.759 21.231 378.55 0 350.187 0c-28.379 0-49.582 21.23-49.582 49.581 0 28.385 21.203 49.567 49.582 49.567 28.363.001 49.572-21.183 49.572-49.567"/></svg>