<svg xmlns="http://www.w3.org/2000/svg" width="400" height="100" viewBox="0 0 400 100"><path fill="#FFF" d="M36.4 52.5H22.8l7.3-23.7 6.3 23.7zM15.7 78.6L20.4 63h18.4l4.4 15.6h17l-17-59.4c-1-3.5-3.1-5.1-6.8-5.1H12.3v5.6h2c2.5 0 3.9 1 3.9 2.9 0 1.3-.3 2.3-1.3 5.2L0 78.6h15.7zm64.1 0V19c0-3.1-1.8-4.9-4.8-4.9H60v5.6h1c2.5 0 3.6 1.1 3.6 3.6v55.4l15.2-.1zm25.8 0V19c0-3.1-1.8-4.9-4.8-4.9H85.9v5.6h.9c2.5 0 3.6 1.1 3.6 3.6v55.4l15.2-.1zm26.5-58.7c0-4.3-3.2-6.9-8.7-6.9-5.4 0-8.7 2.6-8.7 7s3.3 7 8.7 7c5.5-.1 8.7-2.7 8.7-7.1m-.3 58.7V35.1c0-3.1-1.8-4.9-4.9-4.9h-14.7v5.5h.9c2.5 0 3.6 1.2 3.6 3.7v39.2h15.1zm33.3-23.2v9.4c-2.5 2.6-5.6 4.2-8.2 4.2-2.7 0-3.7-1.3-3.7-5 0-3.6.8-5.2 3.5-6.3 2-.8 4.6-1.6 8.4-2.3m-20.4-11.3c5-2.4 10.6-3.8 14.9-3.8 4.1 0 5.5 1.5 5.5 5.7v1.1c-6.2 1-8.1 1.4-11.6 2.1-2 .5-3.9 1-5.7 1.8-6.1 2.4-9 7.2-9 14.4 0 9.2 4 13.6 12.2 13.6 3 0 5.7-.6 8.1-1.5 2.1-.9 3.4-1.7 6.5-4.2v.7c0 3 1.5 4.5 4.6 4.5H184v-5.2h-.7c-2.6 0-3.6-1.2-3.6-4.3V46.1c0-12.3-4.3-16.6-16.6-16.6-4 0-7.8.5-11.6 1.4-3.8.9-5.7 1.6-10.3 3.9l3.5 9.3zM206 78.6V45.9c2.5-2.8 5.1-4.1 8.1-4.1 3.2 0 4 1.3 4 6.1v30.7h15.1V45.7c0-7.7-.6-10.1-3-12.7-2-2.2-5.1-3.4-9.1-3.4-5.9 0-10.1 1.8-15.7 7.1v-1.9c0-3-1.6-4.6-4.7-4.6h-14.3v5.5h.9c2.5 0 3.6 1.2 3.6 3.7v39.2H206zm72.1-10.1H257l20.1-28.3v-10h-31.6c-3.6 0-5.2 1.6-5.2 5.2v8.8h5.6v-.9c0-2.2 1.2-3.3 3.6-3.3h10.9l-20.3 28.6v10h38V68.5zm79.2 8.9V22.7c0-4.4-1.5-5.8-5.8-5.8h-12.8V23h.8c2.9 0 3.5.7 3.5 4.2v50.3h14.3zm6.4 0h14.2V34.8c0-4.3-1.7-5.8-5.8-5.8h-8.4v48.4zm-27 0V29h-8.4c-4.2 0-5.8 1.5-5.8 5.8v42.6h14.2zm54.6-27.8c0 24.1-17.3 41.6-41.1 41.6S309 73.7 309 49.6 326.3 8 350.2 8c23.8-.1 41.1 17.6 41.1 41.6m8.5 0c0-28.4-21.2-49.6-49.6-49.6-28.4 0-49.6 21.2-49.6 49.6 0 28.4 21.2 49.6 49.6 49.6 28.4-.1 49.6-21.2 49.6-49.6"/></svg>