<?xml version="1.0" encoding="utf-8"?>
<!-- Generator: Adobe Illustrator 19.0.0, SVG Export Plug-In . SVG Version: 6.00 Build 0)  -->
<svg version="1.1" id="Ebene_1" xmlns="http://www.w3.org/2000/svg" xmlns:xlink="http://www.w3.org/1999/xlink" x="0px" y="0px"
	 viewBox="-437 238 85 85" style="enable-background:new -437 238 85 85;" xml:space="preserve">
<style type="text/css">
	.st0{filter:url(#Adobe_OpacityMaskFilter);}
	.st1{fill:#FFFFFF;}
	.st2{mask:url(#mask-2);fill:#35A28F;}
	.st3{fill:#35A28F;}
</style>
<title>Papierflieger</title>
<desc>Created with Sketch.</desc>
<g id="Symbols">
	<g id="_Papierflieger" transform="translate(-8.000000, -8.000000)">
		<g id="Papierflieger" transform="translate(8.000000, 8.000000)">
			<g id="Group-3">
				<g id="Clip-2">
				</g>
				<defs>
					<filter id="Adobe_OpacityMaskFilter" filterUnits="userSpaceOnUse" x="-437" y="238" width="84.7" height="84.4">
						<feColorMatrix  type="matrix" values="1 0 0 0 0  0 1 0 0 0  0 0 1 0 0  0 0 0 1 0"/>
					</filter>
				</defs>
				<mask maskUnits="userSpaceOnUse" x="-437" y="238" width="84.7" height="84.4" id="mask-2">
					<g class="st0">
						<polygon id="path-1" class="st1" points="-352.3,322.4 -352.3,238 -437,238 -437,322.4 						"/>
					</g>
				</mask>
				<path id="Fill-1" class="st2" d="M-400.3,302.1l16.6,16.5l27.7-76.9l-77.2,27.6l16.6,16.5l12.7,1.5c1,0.1,1.8,0.9,1.9,1.9
					L-400.3,302.1z M-383.4,322.4c-0.6,0-1.1-0.2-1.6-0.6l-17.8-17.7c-0.3-0.3-0.6-0.8-0.6-1.3l-1.6-12.5l-12.3-1.4
					c-0.5-0.1-1-0.3-1.3-0.6l-17.8-17.7c-0.5-0.5-0.8-1.3-0.6-2c0.2-0.7,0.7-1.3,1.4-1.6l80.3-28.8c0.8-0.3,1.7-0.1,2.3,0.5
					c0.6,0.6,0.8,1.5,0.5,2.3l-28.9,80c-0.3,0.7-0.9,1.2-1.6,1.4C-383.1,322.4-383.2,322.4-383.4,322.4L-383.4,322.4z"/>
			</g>
			<path id="Fill-4" class="st3" d="M-355.8,243.8L-355.8,243.8C-355.8,243.8-355.8,243.8-355.8,243.8L-355.8,243.8z M-400.4,304
				l-2.5-1.8l39.2-52.5l-52.5,39.2l-1.8-2.5l60.3-45.1c0.7-0.5,1.6-0.4,2.2,0.2c0.6,0.6,0.7,1.5,0.2,2.2L-400.4,304z"/>
			<path id="Fill-6" class="st3" d="M-402.8,291l-2.2-2.2l17.4-17.4c0.6-0.6,1.6-0.6,2.2,0l0,0c0.6,0.6,0.6,1.6,0,2.2L-402.8,291z"
				/>
		</g>
	</g>
</g>
</svg>
